<?xml version="1.0" standalone="no"?>
<!DOCTYPE svg PUBLIC "-//W3C//DTD SVG 20010904//EN"
 "http://www.w3.org/TR/2001/REC-SVG-20010904/DTD/svg10.dtd">
<svg version="1.0" xmlns="http://www.w3.org/2000/svg"
 width="64.000000pt" height="64.000000pt" viewBox="0 0 64.000000 64.000000"
 preserveAspectRatio="xMidYMid meet">
<metadata>
Created by potrace 1.10, written by Peter Selinger 2001-2011
</metadata>
<g transform="translate(0.000000,64.000000) scale(0.100000,-0.100000)"
fill="#545454" stroke="none">
<path d="M470 574 c-22 -25 -45 -33 -112 -40 -58 -5 -68 -4 -103 20 -21 15
-43 25 -49 23 -6 -2 -13 -25 -16 -50 -3 -26 -11 -52 -18 -59 -29 -29 5 -160
45 -171 10 -3 30 -8 45 -11 25 -6 27 -9 16 -26 -18 -28 -39 -25 -68 10 -23 28
-27 29 -62 20 -47 -13 -50 -31 -6 -23 28 4 36 0 56 -26 14 -20 31 -31 47 -31
30 0 37 -12 29 -44 -7 -29 -39 -43 -59 -26 -16 13 -28 -1 -19 -24 4 -10 18
-16 40 -16 29 0 38 6 57 37 l22 38 3 -40 c2 -27 -1 -43 -12 -51 -20 -14 -20
-20 -1 -28 28 -10 45 22 46 92 1 58 2 62 9 29 8 -44 39 -90 64 -95 20 -4 21
21 0 38 -19 16 -46 79 -40 94 2 6 7 2 11 -9 25 -64 102 -98 125 -56 12 24 -4
38 -24 22 -21 -18 -44 -2 -73 48 -15 25 -31 49 -36 52 -5 4 12 12 38 20 25 8
62 27 82 43 34 28 35 31 31 84 -3 38 -11 59 -23 68 -14 11 -17 22 -12 59 7 48
-7 61 -33 29z m8 -45 c-7 -20 -14 -27 -20 -21 -6 6 -6 17 1 31 18 32 31 25 19
-10z m-244 12 c3 -5 -1 -14 -9 -21 -13 -10 -15 -9 -15 9 0 21 14 28 24 12z
m16 -31 c-6 -11 -16 -20 -22 -20 -6 0 -3 9 7 20 10 11 20 20 22 20 2 0 -1 -9
-7 -20z m50 6 c0 -11 -19 -15 -25 -6 -3 5 1 10 9 10 9 0 16 -2 16 -4z m71 -6
c13 -8 19 -7 19 0 0 14 31 9 48 -7 11 -11 10 -17 -3 -35 -16 -23 -16 -23 -9 6
5 21 4 27 -5 22 -6 -4 -11 -2 -11 5 0 10 -3 10 -12 1 -10 -10 -10 -15 2 -22 8
-5 11 -13 6 -17 -5 -4 -11 -2 -13 5 -3 6 -9 10 -14 6 -5 -3 -9 0 -9 6 0 6 -4
8 -10 5 -5 -3 -7 0 -5 7 4 9 -2 14 -15 15 -11 1 -20 -2 -20 -8 0 -5 5 -9 10
-9 6 0 6 -7 -2 -19 -15 -24 -59 -26 -50 -2 5 14 4 14 -11 2 -9 -7 -17 -18 -17
-23 0 -5 -7 -16 -15 -25 -14 -14 -15 -13 -9 12 5 20 4 26 -5 21 -6 -4 -11 -2
-11 4 0 6 -5 8 -12 4 -7 -4 -8 -3 -4 4 5 9 13 9 26 2 25 -14 27 -13 33 12 5
18 8 19 22 8 14 -11 18 -10 31 8 17 24 35 27 65 12z m85 -48 c-18 -16 -18 -16
-6 6 6 13 14 21 18 18 3 -4 -2 -14 -12 -24z m34 3 c-7 -9 -10 -19 -6 -22 4 -4
11 -1 16 7 6 10 8 0 5 -28 -2 -24 0 -40 6 -37 5 3 6 -1 3 -9 -3 -9 -10 -16
-16 -16 -5 0 -6 5 -3 10 3 6 1 10 -5 10 -6 0 -9 4 -5 9 3 5 2 12 -3 15 -4 2
-7 17 -6 33 2 41 3 43 15 43 8 0 7 -5 -1 -15z m-280 -96 c-8 -36 -9 -35 -15
21 -4 42 5 61 16 33 4 -11 4 -35 -1 -54z m248 38 c11 -23 11 -34 2 -57 -14
-34 -33 -40 -127 -40 -80 0 -103 13 -103 59 0 42 27 59 100 64 107 6 114 5
128 -26z m-90 -150 c17 -13 15 -26 -5 -34 -10 -4 -24 -14 -30 -22 -12 -14 -14
-14 -27 2 -21 27 -1 76 28 69 12 -3 27 -9 34 -15z"/>
<path d="M307 483 c-4 -3 -7 -11 -7 -17 0 -6 5 -5 12 2 6 6 9 14 7 17 -3 3 -9
2 -12 -2z"/>
<path d="M404 395 c-8 -20 3 -48 16 -40 13 8 13 55 0 55 -6 0 -13 -7 -16 -15z"/>
<path d="M266 385 c-8 -21 1 -35 20 -35 10 0 14 8 12 22 -4 27 -23 34 -32 13z"/>
<path d="M340 360 c0 -5 5 -10 10 -10 6 0 10 5 10 10 0 6 -4 10 -10 10 -5 0
-10 -4 -10 -10z"/>
<path d="M326 328 c3 -4 14 -8 24 -8 10 0 21 4 24 8 3 5 -8 9 -24 9 -16 0 -27
-4 -24 -9z"/>
</g>
</svg>
